<svg width="64" height="64" viewBox="0 0 64 64" fill="none" xmlns="http://www.w3.org/2000/svg">
<ellipse cx="28.1738" cy="28.2525" rx="19.4257" ry="19.5025" fill="#2B2E8C"/>
<path d="M53.9495 45.7832C52.9179 45.7832 52.0817 46.6227 52.0817 47.6584V54.1278C52.1803 56.6158 55.7196 56.614 55.8173 54.1278V47.6584C55.8173 46.6227 54.9811 45.7832 53.9495 45.7832ZM46.4783 45.7832C45.4467 45.7832 44.6105 46.6227 44.6105 47.6584V54.1278C44.7091 56.6158 48.2483 56.614 48.3461 54.1278V47.6584C48.3461 46.6227 47.5099 45.7832 46.4783 45.7832ZM39.007 45.7832C37.9754 45.7832 37.1392 46.6227 37.1392 47.6584V54.1278C37.2378 56.6158 40.7771 56.614 40.8748 54.1278V47.6584C40.8748 46.6227 40.0386 45.7832 39.007 45.7832ZM31.5358 51.5025C30.5042 51.5025 29.668 52.3421 29.668 53.3777V54.1278C29.7666 56.6158 33.3058 56.614 33.4036 54.1278V53.3777C33.4036 52.3421 32.5674 51.5025 31.5358 51.5025Z" fill="#2B2E8C"/>
<path d="M34.008 23.4205L33.4284 25.3977H22.383L22.9625 23.4205H34.008ZM28.8262 36.75L22.5875 29.1136L22.5534 27.6818H25.6557C26.4625 27.6818 27.15 27.5682 27.7182 27.3409C28.2864 27.108 28.7211 26.7614 29.0222 26.3011C29.3233 25.8352 29.4739 25.25 29.4739 24.5455C29.4739 23.5057 29.1614 22.6903 28.5364 22.0994C27.9114 21.5028 26.9512 21.2045 25.6557 21.2045H22.383L22.9625 19.2955H25.6557C27.0421 19.2955 28.1784 19.5256 29.0648 19.9858C29.9569 20.4403 30.6159 21.0653 31.0421 21.8608C31.4739 22.6506 31.6898 23.5455 31.6898 24.5455C31.6898 25.4489 31.4909 26.2812 31.0932 27.0426C30.7012 27.7983 30.0705 28.4062 29.2012 28.8665C28.3375 29.3267 27.1955 29.5568 25.775 29.5568H25.7239L31.4853 36.6136V36.75H28.8262ZM34.008 19.2955L33.4284 21.2727L24.7353 21.2045L25.3148 19.2955H34.008Z" fill="#FFBE45"/>
<path d="M56.0039 31.8127V40.1573C55.9053 42.6453 52.366 42.6434 52.2682 40.1573V36.4529L46.3238 42.4209C45.9736 42.7726 45.4985 42.9701 45.0031 42.9701H35.5779L23.1436 55.4535C22.4143 56.1858 21.2316 56.1858 20.5022 55.4535C19.7727 54.7211 19.7727 53.5338 20.5022 52.8016L33.4835 39.769C33.8337 39.4173 34.3089 39.2197 34.8042 39.2197H44.2294L49.7394 33.6879H45.7309C43.2527 33.5889 43.2546 30.0357 45.7309 29.9375H54.1361C55.1677 29.9375 56.0039 30.777 56.0039 31.8127Z" fill="#FFBE45"/>
</svg>
